#!OML:ASF F:\VICON\USERDATA\INSTALL\rory3\rory3.ASF
:FULLY-SPECIFIED
:DEGREES
1117
root -5.34751 17.7808 12.4768 -362.988 -60.9363 -1.46303
lowerback 9.7736 1.75613 1.92422
upperback 0.532977 2.59191 1.25514
thorax -4.89778 1.24105 -0.131591
lowerneck -14.2104 -5.76053 -11.8346
upperneck 28.8977 -8.66659 9.91798
head 12.9826 -4.08832 4.48687
rclavicle -4.55776e-014 -1.63003e-014
rhumerus -32.8689 -6.14636 -83.9803
rradius 36.3694
rwrist 1.28121
rhand -17.1504 10.5563
rfingers 7.12502
rthumb 9.09017 -19.2278
lclavicle -4.55776e-014 -1.63003e-014
lhumerus -39.6535 1.69243 85.8098
lradius 28.445
lwrist -11.0397
lhand -16.3269 26.4462
lfingers 7.12502
lthumb 9.8848 56.1942
rfemur -3.55687 -3.23203 29.4482
rtibia 26.7522
rfoot -14.8113 -6.17771
rtoes 15.9455
lfemur -16.3427 -4.08973 -13.3555
ltibia 42.5749
lfoot -8.88703 0.716636
ltoes -18.1311
1118
root -5.42782 17.7739 12.5183 -362.613 -61.2283 -1.85027
lowerback 9.83455 1.76707 2.17492
upperback 0.458595 2.63945 1.28235
thorax -4.99926 1.25753 -0.253669
lowerneck -14.3631 -5.77728 -11.7008
upperneck 29.089 -8.65384 9.67082
head 13.0726 -4.09522 4.36964
rclavicle 6.91522e-014 -7.95139e-015
rhumerus -32.9239 -5.62529 -84.1024
rradius 36.8167
rwrist 1.01587
rhand -17.121 10.6282
rfingers 7.12502
rthumb 9.11855 -19.1547
lclavicle 6.91522e-014 -7.95139e-015
lhumerus -39.8621 1.97206 85.6942
lradius 28.4235
lwrist -11.333
lhand -16.3484 26.1906
lfingers 7.12502
lthumb 9.864 55.9395
rfemur -3.10065 -3.04615 29.6578
rtibia 26.4565
rfoot -15.2386 -6.018
rtoes 18.1567
lfemur -16.7774 -4.26246 -13.0529
ltibia 41.1079
lfoot -8.90907 0.760818
ltoes -17.1458
1119
root -5.51011 17.7707 12.5609 -362.322 -61.5145 -2.12865
lowerback 9.84176 1.80101 2.33356
upperback 0.407467 2.70584 1.31967
thorax -5.0503 1.28604 -0.314005
lowerneck -14.1702 -5.69608 -11.7393
upperneck 28.9267 -8.56365 9.77737
head 12.9585 -4.05212 4.43268
rclavicle -7.03201e-015 9.93923e-015
rhumerus -32.944 -5.14132 -84.1737
rradius 37.2397
rwrist 0.66678
rhand -17.1998 10.5366
rfingers 7.12502
rthumb 9.04258 -19.2495
lclavicle -7.03201e-015 9.93923e-015
lhumerus -40.0135 2.24021 85.6248
lradius 28.3921
lwrist -11.5675
lhand -16.2579 25.9556
lfingers 7.12502
lthumb 9.95136 55.7004
rfemur -2.65641 -3.08612 29.7668
rtibia 26.1758
rfoot -15.5801 -5.70668
rtoes 19.2155
lfemur -17.1508 -4.54314 -12.8257
ltibia 39.5765
lfoot -8.87259 0.795828
ltoes -16.9515
1120
root -5.59322 17.7675 12.6023 -361.86 -61.7677 -2.53991
lowerback 9.74284 1.85886 2.54459
upperback 0.376923 2.80696 1.38989
thorax -5.01845 1.3319 -0.369867
lowerneck -14.011 -5.68661 -11.9672
upperneck 28.7584 -8.56076 10.0067
head 12.879 -4.05199 4.56206
rclavicle -1.50704e-014 8.34896e-015
rhumerus -32.9767 -4.9361 -84.1338
rradius 37.6433
rwrist 0.570484
rhand -17.3624 10.699
rfingers 7.12502
rthumb 8.8856 -19.094
lclavicle -1.50704e-014 8.34896e-015
lhumerus -40.0805 2.3143 85.6883
lradius 28.3727
lwrist -11.6239
lhand -16.189 25.8462
lfingers 7.12502
lthumb 10.0178 55.5877
rfemur -2.27697 -3.05897 29.9657
rtibia 25.9281
rfoot -15.8037 -5.58396
rtoes 18.5469
lfemur -17.5379 -4.87129 -12.5256
ltibia 37.9718
lfoot -8.55248 0.978692
ltoes -16.469
1121
root -5.6751 17.7615 12.6425 -361.512 -61.9724 -2.77745
lowerback 9.61217 1.8659 2.70429
upperback 0.343303 2.83027 1.3895
thorax -4.9722 1.34035 -0.45854
lowerneck -14.3286 -5.76818 -11.9451
upperneck 29.0046 -8.63458 9.87526
head 13.0518 -4.09026 4.49549
rclavicle -5.49764e-014 -2.46493e-014
rhumerus -32.9721 -4.63171 -84.2185
rradius 38.0097
rwrist 0.556218
rhand -17.3232 10.8499
rfingers 7.12502
rthumb 8.92349 -18.9414
lclavicle -5.49764e-014 -2.46493e-014
lhumerus -40.1769 2.13885 85.7405
lradius 28.446
lwrist -11.3668
lhand -16.0062 25.8754
lfingers 7.12502
lthumb 10.1942 55.6084
rfemur -1.9701 -3.02332 30.0838
rtibia 25.7042
rfoot -15.8957 -5.4915
rtoes 17.4711
lfemur -17.9392 -5.17727 -12.3361
ltibia 36.2819
lfoot -8.05729 1.34742
ltoes -17.0423
1122
root -5.75871 17.756 12.6824 -361.234 -62.2802 -2.9868
lowerback 9.53513 1.88824 2.83203
upperback 0.331147 2.86981 1.35801
thorax -4.93287 1.35719 -0.565296
lowerneck -14.8526 -5.87725 -11.6665
upperneck 29.3737 -8.74294 9.53536
head 13.3009 -4.13496 4.29364
rclavicle 4.93669e-014 1.43125e-014
rhumerus -32.8868 -4.40012 -84.3635
rradius 38.265
rwrist 0.766964
rhand -17.2221 10.8571
rfingers 7.12502
rthumb 9.02105 -18.93
lclavicle 4.93669e-014 1.43125e-014
lhumerus -40.2621 1.99388 85.7429
lradius 28.4734
lwrist -11.0405
lhand -15.8963 25.6666
lfingers 7.12502
lthumb 10.3002 55.3944
rfemur -1.59919 -2.87716 30.1891
rtibia 25.4704
rfoot -15.9679 -5.36496
rtoes 17.0168
lfemur -18.222 -5.22525 -12.2207
ltibia 34.5416
lfoot -7.62688 1.765
ltoes -21.2374
1123
root -5.84052 17.748 12.7238 -360.873 -62.6095 -3.36237
lowerback 9.55504 1.91834 3.03494
upperback 0.334484 2.93212 1.36161
thorax -4.92897 1.38304 -0.683856
lowerneck -15.1367 -5.9363 -11.4492
upperneck 29.4415 -8.80003 9.33692
head 13.3757 -4.15069 4.16249
rclavicle -2.6047e-014 -2.78299e-015
rhumerus -32.8334 -4.14868 -84.5574
rradius 38.6134
rwrist 1.18977
rhand -17.5189 10.0587
rfingers 7.12502
rthumb 8.73461 -19.7405
lclavicle -2.6047e-014 -2.78299e-015
lhumerus -40.2903 2.02911 85.7198
lradius 28.4311
lwrist -10.7646
lhand -16.022 25.4084
lfingers 7.12502
lthumb 10.1789 55.1421
rfemur -1.15904 -2.73541 30.3677
rtibia 25.2423
rfoot -16.1358 -5.16873
rtoes 16.741
lfemur -18.4109 -5.10763 -12.0224
ltibia 32.7607
lfoot -7.32506 1.85673
ltoes -22.8365
1124
root -5.92084 17.7487 12.7677 -360.637 -62.9102 -3.54917
lowerback 9.5519 1.93032 3.15371
upperback 0.28492 2.96386 1.3885
thorax -4.9737 1.39502 -0.727393
lowerneck -15.1484 -5.92576 -11.4937
upperneck 29.3774 -8.7737 9.36936
head 13.3518 -4.13931 4.18577
rclavicle -1.20172e-013 -2.14687e-014
rhumerus -32.8261 -4.17031 -84.4385
rradius 38.7786
rwrist 1.05734
rhand -16.9926 10.7752
rfingers 7.12502
rthumb 9.24249 -19.0022
lclavicle -1.20172e-013 -2.14687e-014
lhumerus -40.4239 2.10011 85.7698
lradius 28.4878
lwrist -10.4109
lhand -16.3651 25.5125
lfingers 7.12502
lthumb 9.84797 55.2622
rfemur -0.76848 -2.75061 30.4042
rtibia 25.0381
rfoot -16.2466 -4.80973
rtoes 16.5447
lfemur -18.6101 -5.16506 -11.9129
ltibia 30.902
lfoot -7.07167 1.82712
ltoes -22.0589
1125
root -6.00241 17.7491 12.8053 -360.339 -63.399 -3.72675
lowerback 9.50586 1.99721 3.18067
upperback 0.212179 3.05714 1.39367
thorax -5.01999 1.43935 -0.749187
lowerneck -15.1904 -5.87875 -11.428
upperneck 29.3756 -8.7266 9.38825
head 13.3506 -4.1086 4.1895
rclavicle -1.56729e-014 1.31198e-014
rhumerus -32.8298 -4.00795 -84.4651
rradius 38.9501
rwrist 0.8873
rhand -16.7493 11.2152
rfingers 7.12502
rthumb 9.47723 -18.5517
lclavicle -1.56729e-014 1.31198e-014
lhumerus -40.614 2.2471 85.6458
lradius 28.6228
lwrist -10.2986
lhand -16.1454 25.5787
lfingers 7.12502
lthumb 10.0599 55.3182
rfemur -0.437349 -2.53634 30.4537
rtibia 24.8227
rfoot -16.2718 -4.4176
rtoes 17.0706
lfemur -18.7869 -5.2978 -11.7638
ltibia 28.9916
lfoot -6.89765 1.97701
ltoes -21.6684
